<?xml version="1.0" standalone="no"?>
<!DOCTYPE svg PUBLIC "-//W3C//DTD SVG 20010904//EN"
 "http://www.w3.org/TR/2001/REC-SVG-20010904/DTD/svg10.dtd">
<svg version="1.0" xmlns="http://www.w3.org/2000/svg"
 width="385.000000pt" height="160.000000pt" viewBox="0 0 385.000000 160.000000"
 preserveAspectRatio="xMidYMid meet">

<g transform="translate(0.000000,160.000000) scale(0.100000,-0.100000)"
fill="#000000" stroke="none">
<path d="M276 1579 c-77 -21 -139 -113 -138 -204 1 -96 78 -203 187 -258 61
-31 113 -79 151 -138 23 -36 28 -56 29 -106 0 -57 -3 -65 -34 -97 -81 -84
-247 -66 -287 31 -23 53 -11 123 27 159 28 26 37 29 100 29 68 0 72 -1 101
-34 l31 -35 -7 30 c-12 47 -32 70 -80 93 -60 28 -98 27 -152 -5 -64 -38 -99
-101 -99 -179 1 -139 101 -220 258 -210 116 7 186 59 218 164 4 15 8 -67 8
-182 l1 -208 43 3 42 3 5 140 c4 120 7 137 18 118 17 -31 63 -53 110 -53 68 0
139 65 162 149 13 47 13 166 0 213 -20 71 -89 128 -156 128 -36 0 -97 -36
-117 -68 l-16 -27 -1 43 0 42 -45 0 -45 0 0 -102 0 -103 -24 52 c-26 54 -89
121 -197 208 -116 93 -149 146 -143 227 7 115 74 159 155 104 30 -21 37 -32
43 -72 10 -73 73 -152 77 -96 1 9 3 33 5 52 3 41 -33 114 -77 156 -32 30 -104
46 -153 33z m567 -559 c71 -56 53 -252 -28 -285 -95 -40 -159 65 -129 214 4
17 19 45 34 61 34 36 84 40 123 10z"/>
<path d="M2546 1579 c-77 -21 -139 -113 -138 -204 1 -96 78 -203 187 -258 61
-31 113 -79 151 -138 23 -36 28 -56 29 -106 0 -57 -3 -65 -34 -97 -81 -84
-247 -66 -287 31 -23 53 -11 123 27 159 28 26 37 29 100 29 68 0 72 -1 101
-34 l31 -35 -7 30 c-12 47 -32 70 -80 93 -60 28 -98 27 -152 -5 -64 -38 -99
-101 -99 -179 1 -139 101 -220 258 -210 116 7 186 59 218 164 7 26 7 26 8 -4
2 -56 23 -109 56 -142 28 -28 40 -33 80 -33 54 0 81 12 112 48 l23 27 0 -32
c0 -32 1 -33 45 -33 l45 0 0 235 0 235 -45 0 -45 0 0 -152 c0 -171 -11 -212
-64 -237 -25 -12 -33 -11 -62 2 -45 22 -54 60 -54 240 l0 147 -45 0 -45 0 0
-102 0 -103 -24 52 c-26 54 -89 121 -197 208 -116 93 -149 146 -143 227 7 115
74 159 155 104 30 -21 37 -32 43 -72 10 -73 73 -152 77 -96 1 9 3 33 5 52 3
41 -33 114 -77 156 -32 30 -104 46 -153 33z"/>
<path d="M2210 1205 l0 -134 -26 24 c-73 68 -189 33 -241 -73 -24 -50 -28 -69
-28 -147 0 -76 4 -98 25 -140 32 -64 78 -95 139 -95 47 0 89 20 116 56 14 18
14 17 15 -13 0 -33 0 -33 50 -33 l50 0 0 345 0 345 -50 0 -50 0 0 -135z m-35
-187 c32 -28 49 -95 39 -163 -9 -67 -28 -103 -68 -121 -29 -14 -36 -14 -69 0
-47 19 -67 63 -67 146 0 70 18 120 51 144 33 23 83 20 114 -6z"/>
<path d="M3340 995 l0 -345 45 0 45 0 0 345 0 345 -45 0 -45 0 0 -345z"/>
<path d="M1173 1111 c-156 -73 -163 -378 -11 -457 38 -20 145 -18 188 4 31 15
35 22 38 59 l3 43 -43 -20 c-52 -24 -99 -25 -138 -5 -32 16 -60 61 -60 95 0
19 6 20 136 20 l137 0 -5 73 c-5 81 -34 146 -78 179 -39 28 -116 33 -167 9z
m122 -83 c15 -14 28 -38 32 -60 l6 -38 -92 0 c-100 0 -105 4 -76 60 31 60 85
76 130 38z"/>
<path d="M1603 1111 c-156 -73 -163 -378 -11 -457 38 -20 145 -18 188 4 31 15
35 22 38 59 l3 43 -43 -20 c-52 -24 -99 -25 -138 -5 -32 16 -60 61 -60 95 0
19 6 20 136 20 l137 0 -5 73 c-5 81 -34 146 -78 179 -39 28 -116 33 -167 9z
m122 -83 c15 -14 28 -38 32 -60 l6 -38 -92 0 c-100 0 -105 4 -76 60 31 60 85
76 130 38z"/>
<path d="M3035 330 c-24 -27 1 -27 35 0 24 19 24 20 4 20 -11 0 -29 -9 -39
-20z"/>
<path d="M3170 261 l0 -88 67 -1 c79 -2 103 13 103 64 0 23 -6 37 -19 44 -27
14 -84 13 -99 -2 -9 -9 -12 -3 -12 30 0 35 -3 42 -20 42 -18 0 -20 -7 -20 -89z
m128 -22 c4 -32 -18 -51 -55 -47 -20 2 -29 9 -31 26 -5 33 16 54 52 50 25 -2
32 -8 34 -29z"/>
<path d="M3490 260 c0 -83 1 -90 20 -90 19 0 20 7 20 90 0 83 -1 90 -20 90
-19 0 -20 -7 -20 -90z"/>
<path d="M376 260 c-25 -43 -46 -82 -46 -85 0 -14 41 -2 50 15 9 16 21 20 65
20 45 0 55 -3 60 -20 4 -13 15 -20 32 -20 l25 0 -38 68 c-56 101 -57 102 -81
102 -16 0 -32 -19 -67 -80z m104 -22 c0 -5 -16 -8 -35 -8 -39 0 -42 7 -19 52
l17 32 18 -35 c10 -19 18 -37 19 -41z"/>
<path d="M1790 330 c0 -5 9 -10 20 -10 11 0 20 5 20 10 0 6 -9 10 -20 10 -11
0 -20 -4 -20 -10z"/>
<path d="M2230 329 c-41 -17 -60 -40 -60 -76 0 -37 26 -69 63 -78 35 -9 120
-1 124 11 3 8 -12 10 -44 7 -39 -4 -53 -1 -75 17 -60 46 -17 106 74 104 34 0
48 4 48 13 0 16 -91 17 -130 2z"/>
<path d="M3390 330 c0 -5 9 -10 20 -10 11 0 20 5 20 10 0 6 -9 10 -20 10 -11
0 -20 -4 -20 -10z"/>
<path d="M2850 305 c0 -8 -7 -15 -15 -15 -8 0 -15 -4 -15 -10 0 -5 7 -10 14
-10 11 0 16 -14 18 -47 3 -48 3 -48 41 -51 21 -2 37 1 37 7 0 6 -9 11 -20 11
-17 0 -20 7 -20 40 0 33 3 40 20 40 11 0 20 5 20 10 0 6 -9 10 -20 10 -11 0
-20 7 -20 15 0 8 -9 15 -20 15 -11 0 -20 -7 -20 -15z"/>
<path d="M602 281 c-24 -15 -9 -45 28 -57 50 -16 50 -34 1 -34 -23 0 -41 -4
-41 -10 0 -12 90 -13 108 -1 24 15 9 45 -28 57 -50 16 -50 34 -1 34 23 0 41 5
41 10 0 12 -90 13 -108 1z"/>
<path d="M762 281 c-24 -15 -9 -45 28 -57 50 -16 50 -34 1 -34 -23 0 -41 -4
-41 -10 0 -12 90 -13 108 -1 24 15 9 45 -28 57 -50 16 -50 34 -1 34 23 0 41 5
41 10 0 12 -90 13 -108 1z"/>
<path d="M932 274 c-31 -21 -30 -69 2 -89 27 -18 117 -17 123 1 2 7 -8 9 -27
6 -16 -2 -41 -1 -55 2 -45 12 -26 26 35 26 52 0 60 3 60 18 0 47 -89 70 -138
36z m96 -21 c2 -9 -9 -13 -37 -13 -39 0 -50 8 -34 24 11 11 66 2 71 -11z"/>
<path d="M1112 281 c-24 -15 -9 -45 28 -57 50 -16 50 -34 1 -34 -23 0 -41 -4
-41 -10 0 -12 90 -13 108 -1 24 15 9 45 -28 57 -50 16 -50 34 -1 34 23 0 41 5
41 10 0 12 -90 13 -108 1z"/>
<path d="M1272 281 c-24 -15 -9 -45 28 -57 50 -16 50 -34 1 -34 -23 0 -41 -4
-41 -10 0 -12 90 -13 108 -1 24 15 9 45 -28 57 -50 16 -50 34 -1 34 23 0 41 5
41 10 0 12 -90 13 -108 1z"/>
<path d="M1442 274 c-30 -20 -30 -68 0 -88 12 -9 43 -16 68 -16 58 0 90 22 90
60 0 18 -8 34 -22 44 -29 20 -107 20 -136 0z m112 -26 c15 -25 -4 -52 -38 -56
-47 -6 -74 36 -44 66 18 18 69 11 82 -10z"/>
<path d="M1650 230 c0 -53 2 -60 20 -60 16 0 20 7 20 38 0 41 14 62 42 62 10
0 18 5 18 10 0 14 -33 13 -48 -2 -9 -9 -12 -9 -12 0 0 7 -9 12 -20 12 -18 0
-20 -7 -20 -60z"/>
<path d="M1790 230 c0 -53 2 -60 20 -60 18 0 20 7 20 60 0 53 -2 60 -20 60
-18 0 -20 -7 -20 -60z"/>
<path d="M1887 283 c-15 -14 -5 -19 36 -19 47 1 64 -17 20 -22 -52 -5 -71 -12
-77 -28 -12 -31 12 -44 85 -42 l69 1 0 43 c0 56 -19 74 -79 74 -26 0 -51 -3
-54 -7z m93 -61 c0 -15 -24 -32 -46 -32 -30 0 -39 16 -17 29 21 12 63 14 63 3z"/>
<path d="M2422 274 c-30 -20 -30 -68 0 -88 12 -9 43 -16 68 -16 58 0 90 22 90
60 0 18 -8 34 -22 44 -29 20 -107 20 -136 0z m112 -26 c15 -25 -4 -52 -38 -56
-47 -6 -74 36 -44 66 18 18 69 11 82 -10z"/>
<path d="M2630 229 c0 -52 2 -59 20 -59 17 0 20 7 20 45 0 39 3 45 25 51 42
11 55 -1 55 -51 0 -38 3 -45 20 -45 17 0 20 7 20 49 0 28 -6 53 -13 59 -7 6
-43 11 -80 10 l-67 -1 0 -58z"/>
<path d="M2987 283 c-15 -14 -5 -19 36 -19 47 1 64 -17 20 -22 -52 -5 -71 -12
-77 -28 -12 -31 12 -44 85 -42 l69 1 0 43 c0 56 -19 74 -79 74 -26 0 -51 -3
-54 -7z m93 -61 c0 -15 -24 -32 -46 -32 -30 0 -39 16 -17 29 21 12 63 14 63 3z"/>
<path d="M3390 230 c0 -53 2 -60 20 -60 18 0 20 7 20 60 0 53 -2 60 -20 60
-18 0 -20 -7 -20 -60z"/>
</g>
</svg>
